<?xml version="1.0" encoding="UTF-8" standalone="no"?>
<!-- Created with Inkscape (http://www.inkscape.org/) -->
<svg width="52mm" height="60mm" viewBox="0 0 104.15511 119.29227" version="1.1" id="svg63901" inkscape:version="1.2.2 (b0a8486541, 2022-12-01)" sodipodi:docname="emacs-logo-cutout.svg" xmlns:inkscape="http://www.inkscape.org/namespaces/inkscape" xmlns:sodipodi="http://sodipodi.sourceforge.net/DTD/sodipodi-0.dtd" xmlns="http://www.w3.org/2000/svg" xmlns:svg="http://www.w3.org/2000/svg">
  <sodipodi:namedview id="namedview63903" pagecolor="#ffffff" bordercolor="#000000" borderopacity="1.0" inkscape:showpageshadow="2" inkscape:pageopacity="0.0" inkscape:pagecheckerboard="0" inkscape:deskcolor="#d1d1d1" inkscape:document-units="mm" showgrid="false" inkscape:zoom="3.3638608" inkscape:cx="108.80355" inkscape:cy="135.26124" inkscape:window-width="3440" inkscape:window-height="1354" inkscape:window-x="0" inkscape:window-y="42" inkscape:window-maximized="1" inkscape:current-layer="layer1"/>
  <defs id="defs63898">
    <filter inkscape:label="In and Out" inkscape:menu="Shadows and Glows" inkscape:menu-tooltip="Inner colorized shadow, outer black shadow" style="color-interpolation-filters:sRGB" id="filter50638" x="-0.098167113" y="-0.083101112" width="1.2474629" height="1.2094841">
      <feGaussianBlur result="result0" in="SourceAlpha" stdDeviation="4" id="feGaussianBlur50632"/>
      <feOffset dx="5" dy="5" result="result4" id="feOffset50634"/>
      <feComposite in="SourceGraphic" in2="result4" operator="out" result="result3" id="feComposite50636"/>
      <feColorMatrix id="feColorMatrix2031" values="1.0000000 0.0000000 0.0000000 0.0000000 0.0000000 0.0000000 1.0000000 0.0000000 0.0000000 0.0000000 0.0000000 0.0000000 1.0000000 0.0000000 0.0000000 0.0000000 0.0000000 0.0000000 0.80000000 0.0000000 "/>
    </filter>
  </defs>
  <g inkscape:label="Layer 1" inkscape:groupmode="layer" id="layer1" transform="translate(-49.104941,-26.512593)">
    <path d="m 68.530717,146.73182 c 0,0 6.71284,0.47437 15.34846,-0.28657 c 3.49729,-0.30849 16.775473,-1.61249 26.702633,-3.78959 c 0,0 12.1037,-2.59034 18.57895,-4.97653 c 6.77548,-2.49699 10.46241,-4.61609 12.12179,-7.61884 c -0.0685,-0.61562 0.51141,-2.79697 -2.61351,-4.10756 c -7.9882,-3.35047 -17.25258,-2.74446 -35.5846,-3.13316 C 82.755047,122.12035 75.992157,118.7182 72.389697,115.97759 c -3.45452,-2.78024 -1.71739,-10.47215 13.08457,-17.247521 c 7.45623,-3.60795 36.685303,-10.26621 36.685303,-10.26621 c -9.84379,-4.86563 -28.199543,-13.41939 -31.972703,-15.26661 c -3.30932,-1.61991 -8.60518,-4.05916 -9.75316,-7.01036 c -1.30114,-2.83329 3.07377,-5.27378 5.51782,-5.97274 c 7.87126,-2.270474 18.983013,-3.681577 29.096083,-3.840065 c 5.08334,-0.08218 5.90845,-0.407193 5.90845,-0.407193 c 7.01407,-1.164033 11.63153,-5.962327 9.70765,-13.562248 c -1.727,-7.757604 -10.83576,-12.315814 -19.49168,-10.737737 c -8.1512,1.485958 -27.797953,7.192863 -27.797953,7.192863 c 24.284763,-0.209811 28.349393,0.194583 30.164693,2.733197 c 1.07216,1.498833 -0.48673,3.554055 -6.96375,4.611839 C 99.523937,47.3565 84.866887,48.743307 84.866887,48.743307 c -14.0609,0.834986 -23.96543,0.891189 -26.93597,7.180256 c -1.94073,4.108916 2.06962,7.741546 3.82731,10.015316 c 7.42772,8.26033 18.15667,12.71544 25.06255,15.99612 c 2.59843,1.23396 10.22263,3.56559 10.22263,3.56559 c -22.40435,-1.2326 -38.56598,5.64725 -48.04631,13.56813 c -10.72251,9.917821 -5.97919,21.739521 15.98833,29.018481 c 12.97488,4.29936 19.40954,6.32126 38.763553,4.57836 c 11.39982,-0.61423 13.19686,-0.24814 13.31052,0.68691 c 0.16033,1.3176 -12.66187,4.5884 -16.16232,5.59804 c -8.905293,2.56868 -32.249653,7.75552 -32.366463,7.78062 z" id="path4237" style="fill:#020202;fill-rule:evenodd;stroke:#000000;stroke-width:0;filter:url(#filter50638)" transform="matrix(0.85378346,0,0,0.85378346,20.167831,7.9376993)"/>
  </g>
</svg>